<?xml version="1.0" encoding="utf-8"?>
<!-- Generator: Adobe Illustrator 16.0.0, SVG Export Plug-In . SVG Version: 6.00 Build 0)  -->
<!DOCTYPE svg PUBLIC "-//W3C//DTD SVG 1.1//EN" "http://www.w3.org/Graphics/SVG/1.1/DTD/svg11.dtd">
<svg version="1.1" id="Calque_1" xmlns="http://www.w3.org/2000/svg" xmlns:xlink="http://www.w3.org/1999/xlink" x="0px" y="0px"
	 width="447.301px" height="560px" viewBox="0 0 447.301 560" enable-background="new 0 0 447.301 560" xml:space="preserve">
<g>
	<g>
		<g>
			<ellipse fill="#EC1C24" cx="39.876" cy="420.189" rx="33.922" ry="33.318"/>
			<path fill="#231F20" d="M39.876,459.869c-22.276,0-40.4-17.801-40.4-39.68c0-21.88,18.124-39.681,40.4-39.681
				c22.277,0,40.4,17.801,40.4,39.681C80.277,442.068,62.153,459.869,39.876,459.869z M39.876,393.233
				c-15.133,0-27.445,12.092-27.445,26.956c0,14.863,12.313,26.956,27.445,26.956c15.133,0,27.445-12.093,27.445-26.956
				C67.322,405.325,55.01,393.233,39.876,393.233z"/>
		</g>
		<g>
			<path fill="#FFFFFF" d="M288.838,7.727H123.781c-45.048,0-81.567,35.868-81.567,80.113v384.32
				c0,44.244,36.519,80.112,81.567,80.112h235.475c45.049,0,81.567-35.868,81.567-80.112V157.003L288.838,7.727z"/>
			<path fill="#231F20" d="M359.256,558.635H123.781c-48.548,0-88.044-38.793-88.044-86.475V87.84
				c0-47.682,39.497-86.475,88.044-86.475h165.057c1.718,0,3.365,0.67,4.58,1.863l151.985,149.277
				c1.215,1.193,1.897,2.812,1.897,4.499V472.16C447.301,519.842,407.804,558.635,359.256,558.635z M123.781,14.089
				c-41.404,0-75.09,33.085-75.09,73.751v384.32c0,40.666,33.686,73.751,75.09,73.751h235.475c41.405,0,75.09-33.085,75.09-73.751
				V159.638L286.156,14.089H123.781z"/>
		</g>
		<g>
			<path fill="#DBDCDD" d="M288.838,7.727l151.985,149.276H321.25c-17.9,0-32.412-14.253-32.412-31.835V7.727z"/>
			<path fill="#231F20" d="M440.843,163.365c-0.007,0-0.014,0-0.02,0H321.25c-21.443,0-38.89-17.135-38.89-38.197V7.727
				c0-2.573,1.579-4.893,3.999-5.877c2.42-0.984,5.205-0.441,7.059,1.379l151.692,148.988c1.354,1.166,2.21,2.878,2.21,4.786
				C447.321,160.517,444.42,163.365,440.843,163.365z M295.316,23.086v102.082c0,14.046,11.634,25.473,25.935,25.473h103.935
				L295.316,23.086z"/>
		</g>
		<g>
			<path fill="#EC1C24" d="M42.96,228.063c-20.149,0-36.482,16.042-36.482,35.833v150.05h0.668
				c3.244-16.525,18.042-29.011,35.814-29.011h367.396V228.063H42.96z"/>
			<path fill="#231F20" d="M7.146,420.309H6.478C2.9,420.309,0,417.46,0,413.946v-150.05c0-23.267,19.272-42.195,42.96-42.195
				h367.396c3.577,0,6.478,2.848,6.478,6.362v156.872c0,3.514-2.9,6.362-6.478,6.362H42.96c-14.353,0-26.741,10.032-29.454,23.854
				C12.918,418.146,10.25,420.309,7.146,420.309z M42.96,234.426c-16.545,0-30.005,13.221-30.005,29.471v126.688
				c7.812-7.479,18.465-12.012,30.005-12.012h360.918V234.426H42.96z"/>
		</g>
	</g>
	<g>
		<path fill="#FFFFFF" d="M101.156,268.611c0-2.65,2.208-4.819,4.784-4.819h27.354c19.381,0,32.138,10.12,32.138,26.747v0.24
			c0,18.192-15.455,27.589-33.732,27.589h-20.853v25.542c0,2.65-2.208,4.819-4.907,4.819c-2.576,0-4.784-2.169-4.784-4.819V268.611z
			 M132.067,309.694c14.229,0,23.551-7.47,23.551-18.554v-0.24c0-12.048-9.2-18.313-23.061-18.313h-21.711v37.107H132.067z"/>
		<path fill="#FFFFFF" d="M183.1,268.009c0-2.65,2.208-4.819,4.784-4.819c2.698,0,4.907,2.169,4.907,4.819v33.252h49.556v-33.252
			c0-2.65,2.208-4.819,4.906-4.819c2.577,0,4.784,2.169,4.784,4.819v75.901c0,2.65-2.207,4.819-4.784,4.819
			c-2.698,0-4.906-2.169-4.906-4.819v-33.734h-49.556v33.734c0,2.65-2.208,4.819-4.907,4.819c-2.576,0-4.784-2.169-4.784-4.819
			V268.009z"/>
		<path fill="#FFFFFF" d="M276.33,268.611c0-2.65,2.208-4.819,4.784-4.819h27.354c19.382,0,32.138,10.12,32.138,26.747v0.24
			c0,18.192-15.454,27.589-33.731,27.589H286.02v25.542c0,2.65-2.208,4.819-4.906,4.819c-2.576,0-4.784-2.169-4.784-4.819V268.611z
			 M307.241,309.694c14.23,0,23.552-7.47,23.552-18.554v-0.24c0-12.048-9.199-18.313-23.061-18.313H286.02v37.107H307.241z"/>
	</g>
</g>
</svg>
